<?xml version="1.0" standalone="no"?>
<!DOCTYPE svg PUBLIC "-//W3C//DTD SVG 20010904//EN"
 "http://www.w3.org/TR/2001/REC-SVG-20010904/DTD/svg10.dtd">
<svg version="1.0" xmlns="http://www.w3.org/2000/svg"
 width="500.000000pt" height="500.000000pt" viewBox="0 0 500.000000 500.000000"
 preserveAspectRatio="xMidYMid meet">

<g transform="translate(0.000000,500.000000) scale(0.100000,-0.100000)"
fill="#000000" stroke="none">
<path d="M1760 2913 l-74 -26 34 -29 c19 -16 60 -48 90 -72 l55 -44 -4 41 -3
40 47 -6 c26 -4 69 -19 97 -34 94 -51 146 -137 172 -283 10 -56 14 -67 11 -33
-3 42 -1 51 11 46 7 -3 14 -10 14 -16 0 -6 3 -7 6 -4 4 3 15 2 25 -4 20 -10
22 2 23 98 0 43 18 5 26 -54 l7 -58 2 47 c2 74 -32 150 -101 223 -71 76 -146
117 -259 141 -64 14 -79 21 -79 36 0 23 -9 22 -100 -9z"/>
<path d="M1325 2776 c-99 -31 -171 -110 -195 -215 -19 -83 -8 -216 23 -285 54
-116 159 -222 287 -286 88 -44 110 -45 45 -3 -82 54 -177 159 -214 236 -40 84
-54 152 -50 246 5 102 36 164 104 206 43 27 57 30 124 29 81 -1 126 -16 117
-40 -3 -8 -1 -14 3 -14 9 0 142 58 149 65 6 6 -72 74 -85 75 -6 0 -13 -5 -15
-12 -3 -9 -18 -9 -63 0 -74 15 -179 14 -230 -2z"/>
<path d="M1642 2593 c2 -12 -5 -19 -20 -21 -19 -3 -23 -8 -18 -25 3 -12 6 -25
6 -29 0 -3 10 -4 21 -1 18 5 20 3 14 -16 -5 -18 -2 -21 19 -21 19 0 26 5 26
20 0 13 7 20 19 20 17 0 31 18 31 41 0 5 -11 9 -25 9 -18 0 -25 5 -25 20 0 15
-7 20 -25 20 -19 0 -25 -5 -23 -17z"/>
<path d="M2430 2495 c0 -57 4 -95 10 -95 6 0 10 18 10 40 0 22 4 40 9 40 5 0
25 -19 44 -41 20 -25 39 -39 46 -35 7 5 -1 22 -25 52 l-37 45 37 38 c25 25 34
41 27 46 -7 4 -28 -11 -49 -34 -42 -46 -52 -44 -52 6 0 18 -4 33 -10 33 -6 0
-10 -38 -10 -95z"/>
<path d="M2600 2507 c0 -51 5 -88 12 -95 19 -19 30 -14 18 7 -5 11 -10 54 -10
95 0 44 -4 76 -10 76 -6 0 -10 -34 -10 -83z"/>
<path d="M2970 2500 c0 -53 4 -90 10 -90 6 0 10 11 10 25 0 33 10 32 42 -5 35
-40 57 -39 24 1 -31 37 -32 44 -6 72 14 15 17 23 9 26 -7 2 -21 -8 -31 -23
-29 -39 -38 -32 -38 29 0 30 -4 55 -10 55 -6 0 -10 -37 -10 -90z"/>
<path d="M3190 2501 c0 -76 3 -91 16 -91 10 0 13 6 10 18 -9 27 6 40 49 44 37
3 41 6 49 41 13 50 -6 68 -73 75 l-51 5 0 -92z m100 39 c14 -27 -10 -52 -45
-48 -31 3 -39 24 -23 59 9 21 55 14 68 -11z"/>
<path d="M2685 2569 c-4 -6 -5 -13 -2 -16 7 -7 27 6 27 18 0 12 -17 12 -25 -2z"/>
<path d="M2906 2573 c-11 -11 -6 -23 9 -23 8 0 15 4 15 9 0 13 -16 22 -24 14z"/>
<path d="M3605 2550 c4 -12 2 -20 -5 -20 -8 0 -9 -7 -5 -17 3 -10 8 -35 10
-56 5 -46 11 -57 32 -57 11 0 13 3 5 13 -9 11 -16 53 -13 85 1 6 9 12 19 12
16 1 16 1 0 14 -10 7 -18 21 -18 30 0 9 -7 16 -16 16 -11 0 -14 -6 -9 -20z"/>
<path d="M2690 2464 c0 -41 4 -63 10 -59 6 3 10 33 10 66 0 33 -4 59 -10 59
-6 0 -10 -29 -10 -66z"/>
<path d="M2750 2468 c0 -31 5 -60 10 -63 6 -4 10 9 10 32 0 47 19 77 46 71 15
-2 20 -13 22 -51 4 -62 22 -61 22 2 0 58 -9 66 -67 66 l-43 0 0 -57z"/>
<path d="M2908 2523 c-2 -5 -3 -30 -3 -58 0 -74 19 -72 23 3 2 36 -1 62 -7 62
-5 0 -11 -3 -13 -7z"/>
<path d="M3360 2462 c0 -40 4 -61 10 -57 6 3 10 27 10 52 0 36 4 46 20 50 30
8 24 20 -10 19 l-30 -1 0 -63z"/>
<path d="M3485 2520 c-18 -7 -16 -8 10 -11 33 -4 51 -40 18 -37 -38 3 -52 -3
-58 -23 -11 -33 15 -52 59 -44 35 7 36 8 36 54 0 64 -18 81 -65 61z m43 -77
c-2 -9 -15 -20 -29 -24 -22 -5 -26 -4 -24 10 2 9 4 19 4 24 1 4 13 7 27 7 18
0 25 -5 22 -17z"/>
<path d="M3725 2520 c-18 -7 -16 -8 10 -11 18 -3 30 -10 30 -19 0 -9 -7 -14
-17 -12 -10 2 -27 -2 -38 -8 -41 -22 -6 -83 36 -65 11 4 25 7 32 6 8 -1 12 14
12 48 0 39 -4 53 -19 61 -22 11 -19 11 -46 0z m39 -68 c8 -13 -9 -32 -31 -36
-16 -3 -20 0 -18 17 1 12 3 23 4 25 3 6 40 1 45 -6z"/>
<path d="M3830 2468 c0 -31 5 -60 10 -63 6 -4 10 11 10 38 0 84 57 93 62 10 4
-61 21 -58 28 4 4 37 9 49 24 51 25 5 36 -14 36 -66 0 -26 4 -41 10 -37 15 9
12 88 -3 110 -11 14 -20 16 -43 10 -16 -5 -33 -7 -39 -5 -5 2 -29 4 -53 4
l-42 1 0 -57z"/>
<path d="M4080 2520 c0 -5 11 -10 25 -10 23 0 29 -7 23 -27 -1 -5 -8 -7 -15
-5 -24 5 -53 -18 -53 -43 0 -27 29 -41 57 -27 10 5 23 7 30 5 18 -6 14 84 -4
103 -16 16 -63 19 -63 4z m50 -75 c0 -16 -39 -36 -53 -28 -4 2 -2 13 3 24 13
23 50 26 50 4z"/>
<path d="M2215 2470 c3 -5 8 -10 11 -10 2 0 4 5 4 10 0 6 -5 10 -11 10 -5 0
-7 -4 -4 -10z"/>
<path d="M2291 2444 c0 -11 3 -14 6 -6 3 7 2 16 -1 19 -3 4 -6 -2 -5 -13z"/>
<path d="M1660 2398 c0 -9 5 -20 10 -23 13 -8 13 5 0 25 -8 13 -10 13 -10 -2z"/>
<path d="M1562 2385 c-9 -11 -9 -15 -1 -15 19 0 -12 -31 -46 -46 -16 -7 -24
-13 -16 -14 11 0 11 -3 0 -17 -7 -10 3 -3 22 15 37 34 60 43 38 15 -13 -16
-12 -17 4 -4 15 12 17 11 18 -10 0 -13 3 -18 6 -11 3 7 2 20 -2 30 -5 9 -7 29
-6 45 3 31 1 32 -17 12z"/>
<path d="M1763 2373 c2 -18 0 -33 -5 -33 -4 0 -8 -10 -7 -22 0 -17 2 -19 7 -8
11 23 32 23 57 0 17 -16 22 -17 22 -5 0 8 -5 15 -11 15 -17 1 -58 38 -52 48 2
4 0 14 -5 22 -8 11 -9 6 -6 -17z"/>
<path d="M1385 2360 c10 -11 20 -20 23 -20 3 0 -3 9 -13 20 -10 11 -20 20 -23
20 -3 0 3 -9 13 -20z"/>
<path d="M1651 2360 c0 -9 5 -22 12 -29 10 -10 9 -11 -4 -6 -13 5 -18 -3 -24
-42 -4 -26 -11 -53 -16 -59 -5 -7 -9 -16 -8 -20 5 -28 -4 -34 -48 -34 -27 0
-55 4 -62 9 -10 6 -23 5 -35 -2 -20 -11 -20 -12 9 -18 53 -12 104 -9 145 7
l40 16 1 62 2 61 9 -62 c9 -59 11 -62 49 -77 42 -17 72 -19 132 -10 34 6 36 8
19 20 -15 11 -26 10 -61 -2 -47 -16 -76 -12 -85 13 -8 19 27 59 58 69 21 7 21
7 1 15 -33 13 -40 10 -52 -21 -16 -43 -33 -37 -33 13 0 58 -10 89 -26 83 -7
-3 -15 3 -17 12 -4 14 -5 14 -6 2z"/>
<path d="M1332 2313 c17 -27 40 -60 50 -75 10 -15 18 -32 18 -38 0 -17 17 -11
47 15 15 14 21 23 13 20 -9 -3 -23 8 -38 30 -21 33 -95 95 -113 95 -5 0 6 -21
23 -47z"/>
<path d="M1833 2353 c9 -2 23 -2 30 0 6 3 -1 5 -18 5 -16 0 -22 -2 -12 -5z"/>
<path d="M1983 2331 c-23 -16 -53 -46 -68 -65 -15 -20 -31 -33 -36 -30 -5 3
-6 -1 -4 -8 3 -7 15 -19 26 -26 18 -12 23 -11 38 9 20 27 91 149 87 149 -2 0
-21 -13 -43 -29z"/>
<path d="M2560 2251 c0 -17 2 -31 4 -31 8 0 13 51 5 56 -5 3 -9 -9 -9 -25z"/>
<path d="M1550 2259 c13 -6 33 -17 42 -26 18 -16 23 -8 12 21 -4 11 -18 16
-43 15 -34 0 -35 -1 -11 -10z"/>
<path d="M2800 2260 c0 -5 5 -10 11 -10 5 0 7 5 4 10 -3 6 -8 10 -11 10 -2 0
-4 -4 -4 -10z"/>
<path d="M2853 2205 c0 -38 2 -53 4 -32 2 20 2 52 0 70 -2 17 -4 1 -4 -38z"/>
<path d="M3423 2200 c0 -36 2 -50 4 -32 2 17 2 47 0 65 -2 17 -4 3 -4 -33z"/>
<path d="M2467 2233 c-16 -16 -19 -16 -28 -3 -8 12 -10 12 -7 -5 2 -11 14 -25
26 -31 13 -6 24 -15 24 -20 0 -5 3 -15 6 -22 4 -11 6 -11 13 0 5 8 0 21 -12
34 -17 18 -19 26 -10 43 14 26 11 27 -12 4z"/>
<path d="M1784 2229 c-17 -5 -38 -16 -45 -25 -12 -15 -11 -16 11 -9 14 5 40
11 59 14 27 5 31 8 20 17 -9 7 -25 8 -45 3z"/>
<path d="M3031 2192 c1 -28 5 -49 8 -46 6 6 1 87 -6 94 -2 2 -3 -19 -2 -48z"/>
<path d="M1506 2223 c-4 -4 17 -13 46 -19 63 -14 71 -11 29 10 -32 17 -63 21
-75 9z"/>
<path d="M2682 2198 c1 -20 5 -35 10 -32 4 3 5 11 2 18 -3 8 5 21 18 30 12 9
17 16 11 16 -7 0 -15 -5 -19 -11 -4 -8 -9 -7 -15 2 -6 9 -9 2 -7 -23z"/>
<path d="M3281 2214 c0 -11 3 -14 6 -6 3 7 2 16 -1 19 -3 4 -6 -2 -5 -13z"/>
<path d="M3665 2220 c3 -5 8 -10 11 -10 2 0 4 5 4 10 0 6 -5 10 -11 10 -5 0
-7 -4 -4 -10z"/>
<path d="M3895 2200 c-16 -16 -24 -30 -19 -30 6 0 20 14 32 30 13 17 21 30 19
30 -2 0 -16 -13 -32 -30z"/>
<path d="M4070 2197 c0 -23 4 -36 10 -32 6 3 10 15 10 25 0 10 8 24 18 29 9 6
12 11 5 11 -6 0 -15 -5 -19 -11 -4 -8 -9 -7 -15 2 -6 9 -9 1 -9 -24z"/>
<path d="M2890 2205 c-10 -12 -10 -18 -2 -26 7 -5 10 -6 7 -3 -3 4 0 13 7 21
6 7 9 16 6 18 -3 3 -11 -2 -18 -10z"/>
<path d="M3739 2172 c5 -34 6 -35 9 -8 2 16 0 32 -5 37 -5 5 -7 -7 -4 -29z"/>
<path d="M3160 2193 c-38 -7 -45 -20 -11 -19 17 1 33 7 36 14 2 6 3 11 2 11
-1 -1 -13 -4 -27 -6z"/>
<path d="M3611 2184 c0 -11 3 -14 6 -6 3 7 2 16 -1 19 -3 4 -6 -2 -5 -13z"/>
<path d="M4000 2193 c-38 -7 -45 -20 -11 -19 17 1 33 7 36 14 2 6 3 11 2 11
-1 -1 -13 -4 -27 -6z"/>
<path d="M3230 2175 c-11 -13 -11 -19 3 -32 10 -10 22 -13 34 -8 10 5 21 8 25
7 4 -1 4 8 -1 21 -10 27 -43 34 -61 12z m48 -12 c-4 -21 -19 -26 -38 -13 -13
9 -13 11 0 20 23 15 42 12 38 -7z"/>
<path d="M3513 2184 c-20 -9 -15 -42 7 -49 12 -4 27 -2 34 4 7 6 16 8 20 4 4
-4 3 4 -2 17 -9 24 -34 34 -59 24z m47 -18 c0 -22 -19 -29 -36 -15 -12 10 -12
14 -2 20 20 13 38 10 38 -5z"/>
<path d="M2560 2158 c0 -9 7 -19 16 -22 15 -6 15 -4 3 11 -7 10 -15 20 -16 22
-2 2 -3 -3 -3 -11z"/>
<path d="M3126 2151 c-13 -20 25 -25 42 -5 16 17 16 17 -1 4 -15 -11 -20 -11
-27 -1 -5 9 -10 10 -14 2z"/>
<path d="M3625 2150 c-3 -4 2 -11 11 -14 23 -9 46 -7 40 3 -8 12 -45 21 -51
11z"/>
<path d="M3857 2154 c-21 -21 35 -33 63 -13 12 8 10 10 -9 5 -14 -3 -30 -1
-36 4 -7 6 -15 7 -18 4z"/>
<path d="M3966 2151 c-10 -15 22 -27 36 -13 6 6 18 8 27 5 13 -4 14 -3 1 5
-10 8 -18 7 -28 0 -10 -9 -16 -8 -22 1 -5 9 -10 10 -14 2z"/>
<path d="M1989 2063 c-13 -16 -12 -17 4 -4 9 7 17 15 17 17 0 8 -8 3 -21 -13z"/>
<path d="M1785 1809 c-16 -5 -55 -13 -85 -18 l-55 -9 50 -1 c29 0 71 7 100 19
51 19 44 26 -10 9z"/>
</g>
</svg>
